<svg xmlns="http://www.w3.org/2000/svg" xmlns:xlink="http://www.w3.org/1999/xlink" width="1024" height="1024" viewBox="0 0 1024 1024">
  <defs>
    <clipPath id="clip-アートボード_35">
      <rect width="1024" height="1024"/>
    </clipPath>
  </defs>
  <g id="アートボード_35" data-name="アートボード – 35" clip-path="url(#clip-アートボード_35)">
    <rect id="長方形_26" data-name="長方形 26" width="1024" height="1024" rx="100" fill="none"/>
    <g id="ロゴ" transform="translate(-99.35 -10.893)">
      <path id="パス_8" data-name="パス 8" d="M0,134.632s270.158-163.386,523.2,0,538.329,0,538.329,0-287.374,302.919-538.329,0S0,134.632,0,134.632Z" transform="matrix(0.819, -0.574, 0.574, 0.819, 99.35, 700.858)" fill="#0050be"/>
      <path id="パス_9" data-name="パス 9" d="M0,109.91s304.608,247.3,494.249,0,469.238,0,469.238,0-217.739-100.338-469.238,0S0,109.91,0,109.91Z" transform="matrix(-0.438, -0.899, 0.899, -0.438, 726.604, 1004.062)" fill="#ff5212"/>
      <path id="パス_10" data-name="パス 10" d="M0,0S283.2,450.014,472.837,202.717c.209.366.417.808,0,0C202.241,253.761,0,0,0,0Z" transform="matrix(0.53, -0.848, 0.848, 0.53, 180.743, 800.616)" fill="#00be50"/>
    </g>
  </g>
</svg>
