<svg xmlns="http://www.w3.org/2000/svg" xmlns:xlink="http://www.w3.org/1999/xlink" width="1888" height="852" viewBox="0 0 1888 852"><defs><clipPath id="b"><rect width="1888" height="852"/></clipPath></defs><g id="a" clip-path="url(#b)"><g transform="translate(-99.35 -59.301)"><path d="M0,124.114s249.052-150.622,482.327,0,496.272,0,496.272,0-264.923,279.254-496.272,0S0,124.114,0,124.114Z" transform="matrix(0.819, -0.574, 0.574, 0.819, 99.35, 649.363)" fill="#fff"/><path d="M0,101.323s280.81,227.977,455.636,0,432.579,0,432.579,0-200.728-92.5-432.579,0S0,101.323,0,101.323Z" transform="matrix(-0.438, -0.899, 0.899, -0.438, 677.6, 928.879)" fill="#fff"/><path d="M0,0S261.072,414.857,435.9,186.879c.193.337.385.745,0,0C186.441,233.936,0,0,0,0Z" transform="matrix(0.53, -0.848, 0.848, 0.53, 174.385, 741.327)" fill="#fff"/></g><g transform="translate(293.764 9.925)"><path d="M93.577,49.257H84.987L74.541-15.86,50.281,41.6H42.156l-22.4-56.76L9.423,49.257H.95l13.7-85.895h5.572l26.117,65.93,27.974-65.93H79.88Zm18.8,0h-8.589V-9.128h8.589Zm0-69.3h-8.589v-16.6h8.589Zm38.536,10.1c16.366,0,24.608,12.884,24.608,25.536V49.257h-8.473V15.6c0-6.152-4.411-17.063-16.482-17.063-14.973,0-16.947,13.929-17.179,17.527v33.2h-8.473V-9.128h8.473V-.539C137.221-6.11,142.444-9.941,150.917-9.941Zm85.2.813h8.241V49.257h-8.241V38.23c-4.295,5.455-11.491,11.84-21.706,11.84-18.688,0-29.831-15.206-29.831-30.063,0-15.09,11.723-29.947,29.018-29.947C224.624-9.941,231.7-5.3,236.115.854ZM213.481,41.828c11.607,0,21.009-9.75,21.009-21.822,0-11.956-9.4-21.706-21.009-21.706-11.723,0-21.125,9.75-21.125,21.706C192.355,32.078,201.757,41.828,213.481,41.828ZM309.474-9.128h8.241V44.266c0,15.206-7.429,31.92-30.643,31.92-20.429,0-27.045-15.206-28.554-19.616l7.893-2.438s3.134,13.7,20.893,13.7c16.25,0,22.17-11.375,22.17-23.1V38.462c-4.411,6.5-11.491,11.607-23.1,11.607-17.527,0-29.483-14.857-29.483-29.947,0-14.857,11.607-30.063,29.367-30.063,11.607,0,18.92,6.268,23.215,11.723ZM286.259,41.828a21.766,21.766,0,1,0-21.474-21.706A21.822,21.822,0,0,0,286.259,41.828Zm56.064,7.429h-8.589V-9.128h8.589Zm0-69.3h-8.589v-16.6h8.589ZM460.95,29.176l6.268,5.8a41.8,41.8,0,0,1-32.5,15.09A43.319,43.319,0,0,1,391.77,6.31a43.319,43.319,0,0,1,42.947-43.76A42.034,42.034,0,0,1,467.1-22.476l-6.268,5.92a33.259,33.259,0,0,0-25.768-12.536c-17.991,0-34.59,15.67-34.59,35.4s16.6,35.519,34.59,35.519C449.227,41.828,457.932,32.891,460.95,29.176Zm27.974,20.081h-8.589V-9.128h8.589Zm0-69.3h-8.589v-16.6h8.589Zm43.76,10.911V-.655H520.612V49.257h-8.473V-.655h-9.982V-9.128h9.982V-36.637h8.473V-9.128Zm56.528,0h9.17l-38.42,85.662h-9.17l12.3-27.393L540.112-9.128h9.17L567.97,38.346Z" transform="translate(655.178 465.081)" fill="#fff"/><path d="M279.157,141.511h-29.9l-93.5-152.66v172.7H97.237V138.967H130V-23.871L39.036,133.878H10.412L88.014-.654H18.363V-24.825H130v-84.281h25.761v53.113L195.194,8.57,234.313-46.77h32.122l-55.021,77.6ZM561.261-73.8h-22.9l-10.5-35.3h23.217ZM313.188,107.481l29.9-14.948V-16.238h-29.9V-38.819h29.9v-67.743h22.9v67.743h25.125v22.581H365.983V81.083l24.807-12.4v26.4l-77.6,38.483ZM581.933-44.543H518.007l22.9,77.92L553.628,2.209h25.443L551.4,69.634l27.352,93.186H553.946l-16.856-57.566L514.826,159.64H489.383L526.594,69,493.2-44.543H424.5V9.524h65.517l-10.5,120.538h-45.48V108.435h24.489l6.679-76.012H424.5V98.894L400.649,162.82H376.16l24.807-67.107V-68.078H486.2l-11.768-41.027h24.807L511.01-68.078h70.923ZM761.309-72.531H880.893V-49H618.508V-72.531H737.456V-110.7h23.853Zm.636,28.942v33.394h93.186V133.56H830.642V13.022h-68.7v149.8H737.138V13.022h-68.7V133.56H644.27V-10.195h92.868V-43.589Z" transform="translate(639.824 229)" fill="#fff"/></g><path d="M79.648-7.785,79.4-24.329c0-3.157-2.021-4.8-5.3-4.8-3.157,0-5.43,1.642-5.43,4.8l.253,16.543-59.1.253c-2.526,0-4.041,2.021-4.041,4.8S7.287,2.444,9.813,2.444H62.726c-12.25,21.847-34.981,42.053-56.7,51.4a5.162,5.162,0,0,0-2.9,4.8,5.654,5.654,0,0,0,.505,2.526,4.932,4.932,0,0,0,4.546,2.9,6.787,6.787,0,0,0,2.652-.631C27.367,56.62,44.541,43.36,57.17,27.827c4.673-5.809,9.092-11.744,12.376-19.574h.505c-.253,4.167-.758,9.345-.758,13.891L69.8,73.921c0,3.157,2.021,5.051,5.43,5.051,3.283,0,5.43-1.768,5.43-5.051l-.884-71.6,25-.126c2.526,0,4.167-2.4,4.167-5.178s-1.642-4.8-4.167-4.8ZM146.327-18.52a6.806,6.806,0,0,0-3.789-1.263,4.939,4.939,0,0,0-4.041,1.894,5.753,5.753,0,0,0-1.389,3.662,4.906,4.906,0,0,0,2.021,4.041,149.979,149.979,0,0,1,26.393,23.11,6.5,6.5,0,0,0,4.673,2.4,5.178,5.178,0,0,0,3.915-1.768,6.474,6.474,0,0,0,1.768-4.294,6.446,6.446,0,0,0-1.515-4.041C167.037-3.744,155.546-12.71,146.327-18.52ZM230.937-9.3a9.748,9.748,0,0,0-1.894-.253c-2.273,0-4.167,1.389-5.051,4.8-4.546,18.69-15.533,37.128-30.308,48.62-12.628,9.724-34.1,17.048-52.787,17.932-3.157.126-5.051,2.526-5.051,5.557v.631c.253,3.157,2.652,5.051,5.935,5.051h.253c19.574-.758,42.937-8.208,58.217-19.7C217.8,40.076,229.8,19.618,234.978-1.85a13.912,13.912,0,0,0,.253-2.273C235.231-6.775,233.589-8.543,230.937-9.3Zm43.568-15.28c-2.652,0-4.42,2.4-4.42,5.178,0,2.652,1.768,5.3,4.42,5.3h69.2c2.652,0,4.42-2.652,4.42-5.3,0-2.778-1.768-5.178-4.42-5.178ZM264.782,4.969c-2.652,0-4.294,2.526-4.294,5.3,0,2.652,1.642,5.178,4.294,5.178h74.129c4.167,0,5.557,1.389,5.557,3.789a9.432,9.432,0,0,1-.379,2.526C338.532,44.118,316.937,62.05,286.5,66.723a4.94,4.94,0,0,0-4.42,5.051,3.5,3.5,0,0,0,.126,1.137,5.049,5.049,0,0,0,5.3,4.673,3.5,3.5,0,0,0,1.137-.126c35.107-5.051,60.364-26.9,66.552-53.924a26.52,26.52,0,0,0,.758-6.062,13,13,0,0,0-1.642-6.819c-2.147-3.536-5.809-5.683-11.744-5.683Zm181.85,3.915c12.881-8.966,23.868-18.69,31.7-27.656a5.649,5.649,0,0,0,1.389-3.41,5.235,5.235,0,0,0-2.273-4.167,5.863,5.863,0,0,0-3.662-1.263,6,6,0,0,0-4.294,2.021C459.26-13.973,449.031-5.386,435.14,3.58a209.56,209.56,0,0,1-48.62,23.489,5.4,5.4,0,0,0-3.789,5.051,9.746,9.746,0,0,0,.253,1.894c1.01,2.4,2.526,3.536,4.672,3.536a7.637,7.637,0,0,0,2.778-.505,229.155,229.155,0,0,0,44.957-20.837V73.163c0,3.41,2.4,4.925,5.683,4.925,3.157,0,5.557-1.642,5.557-4.8Zm78.549-27.4a6.806,6.806,0,0,0-3.789-1.263,4.939,4.939,0,0,0-4.041,1.894,5.753,5.753,0,0,0-1.389,3.662,4.906,4.906,0,0,0,2.021,4.041,149.979,149.979,0,0,1,26.393,23.11,6.505,6.505,0,0,0,4.673,2.4,5.178,5.178,0,0,0,3.915-1.768,6.475,6.475,0,0,0,1.768-4.294,6.445,6.445,0,0,0-1.515-4.041C545.891-3.744,534.4-12.71,525.18-18.52ZM609.791-9.3a9.747,9.747,0,0,0-1.894-.253c-2.273,0-4.167,1.389-5.051,4.8-4.546,18.69-15.533,37.128-30.308,48.62-12.628,9.724-34.1,17.048-52.787,17.932-3.157.126-5.051,2.526-5.051,5.557v.631c.253,3.157,2.652,5.051,5.935,5.051h.253c19.574-.758,42.937-8.208,58.217-19.7,17.554-13.26,29.551-33.718,34.728-55.186a13.909,13.909,0,0,0,.253-2.273C614.085-6.775,612.443-8.543,609.791-9.3Zm81.58,22.352V-5.639h48.872c2.4,0,3.789-1.894,3.789-4.673s-1.389-4.673-3.789-4.673H691.371V-30.011c0-2.273-1.642-3.789-4.8-3.789-3.031,0-4.8,1.515-4.8,3.789v15.028H635.427c-2.273,0-3.789,1.894-3.789,4.673s1.515,4.673,3.789,4.673h46.346v18.69h-38.9c-2.273,0-3.536,1.768-3.536,4.42s1.263,4.42,3.536,4.42h12.755a89.847,89.847,0,0,0,6.693,12.376,106.7,106.7,0,0,0,18.438,20.711,151.066,151.066,0,0,1-45.336,17.175,4.79,4.79,0,0,0-4.167,4.925,8.682,8.682,0,0,0,.253,1.642,4.921,4.921,0,0,0,5.178,3.915,8.946,8.946,0,0,0,1.768-.126,156.473,156.473,0,0,0,50.64-21.09,130.49,130.49,0,0,0,48.746,21.216,8.528,8.528,0,0,0,1.768.253c2.526,0,4.42-1.515,5.051-4.42a9.748,9.748,0,0,0,.253-1.894c0-2.4-1.389-4.041-4.041-4.546C725.215,69,710.187,63.439,697.433,55.483,708.04,47.4,716.88,38.056,723.068,27.827a13.588,13.588,0,0,0,2.273-6.819c0-4.673-3.662-7.956-10.229-7.956Zm19.574,8.84c1.894,0,2.778.505,2.778,1.515a4.478,4.478,0,0,1-.758,2.021c-5.809,9.092-14.144,17.3-23.994,24.247C679.5,42.1,671.292,33,666.114,21.892ZM829.4,5.1V-10.69c0-3.031.884-4.167,3.662-4.546,11.113-1.768,23.868-4.42,34.6-8.461a3.64,3.64,0,0,0,2.652-3.662,5.858,5.858,0,0,0-.505-2.4,4.5,4.5,0,0,0-4.167-3.031,4.81,4.81,0,0,0-2.147.505c-9.85,3.789-22.479,6.693-34.349,8.587-6.314,1.01-9.345,4.546-9.345,10.608V5.348c0,34.981-5.683,51.524-21.09,67.562a5.168,5.168,0,0,0-1.515,3.41,4.219,4.219,0,0,0,1.894,3.536,4.767,4.767,0,0,0,3.41,1.389,5.588,5.588,0,0,0,4.167-1.894c14.523-15.407,21.974-34.223,22.731-65.163h19.069V79.1c0,2.4,1.894,3.789,4.8,3.789,3.031,0,4.8-1.389,4.8-3.789V14.188h11.871c2.273,0,3.662-2.147,3.662-4.673S872.21,5.1,869.937,5.1Zm-31.571,30.94c7.2,0,10.482-2.652,10.482-10.1V3.833c0-7.577-3.283-10.1-10.482-10.1H774.466c-7.324,0-10.734,3.157-10.734,10.355,0,20.963-.379,32.708-1.642,42.305-1.389,10.482-3.662,19.2-7.577,26.52a5.757,5.757,0,0,0-.758,2.778,4.458,4.458,0,0,0,2.526,4.041,6.212,6.212,0,0,0,2.526.631,4.718,4.718,0,0,0,4.294-2.9c5.683-10.987,8.714-25.383,9.85-41.421ZM773.2,27.322c.126-3.41.126-6.819.126-10.355V5.853c0-2.9,1.263-3.536,3.789-3.536H795.3c2.526,0,3.662.505,3.662,3.536V23.912c0,2.9-1.136,3.41-3.662,3.41ZM761.585-27.865c-2.4,0-3.662,1.894-3.662,4.546,0,2.526,1.263,4.42,3.662,4.42h48.493c2.273,0,3.536-1.894,3.536-4.546,0-2.526-1.263-4.42-3.536-4.42Z" transform="translate(940.881 640.885)" fill="#fff"/></g></svg>