<svg xmlns="http://www.w3.org/2000/svg" xmlns:xlink="http://www.w3.org/1999/xlink" width="1212" height="330" viewBox="0 0 1212 330"><defs><clipPath id="b"><rect width="1212" height="330"/></clipPath></defs><g id="a" clip-path="url(#b)"><g transform="translate(-229 -3.75)"><path d="M40.85-.1h-3.7l-4.5-28.05L22.2-3.4H18.7L9.05-27.85,4.6-.1H.95l5.9-37h2.4L20.5-8.7,32.55-37.1h2.4Zm8.1,0h-3.7V-25.25h3.7Zm0-29.85h-3.7V-37.1h3.7Zm16.6,4.35c7.05,0,10.6,5.55,10.6,11V-.1H72.5V-14.6c0-2.65-1.9-7.35-7.1-7.35-6.45,0-7.3,6-7.4,7.55V-.1H54.35V-25.25H58v3.7A8.548,8.548,0,0,1,65.55-25.6Zm36.7.35h3.55V-.1h-3.55V-4.85C100.4-2.5,97.3.25,92.9.25A12.753,12.753,0,0,1,80.05-12.7c0-6.5,5.05-12.9,12.5-12.9,4.75,0,7.8,2,9.7,4.65ZM92.5-3.3a9.223,9.223,0,0,0,9.05-9.4,9.211,9.211,0,0,0-9.05-9.35,9.221,9.221,0,0,0-9.1,9.35A9.233,9.233,0,0,0,92.5-3.3Zm41.35-21.95h3.55v23c0,6.55-3.2,13.75-13.2,13.75a12.385,12.385,0,0,1-12.3-8.45L115.3,2s1.35,5.9,9,5.9c7,0,9.55-4.9,9.55-9.95v-2.7c-1.9,2.8-4.95,5-9.95,5a12.847,12.847,0,0,1-12.7-12.9c0-6.4,5-12.95,12.65-12.95a12.406,12.406,0,0,1,10,5.05Zm-10,21.95a9.4,9.4,0,0,0,9.35-9.35,9.411,9.411,0,0,0-9.35-9.4,9.326,9.326,0,0,0-9.25,9.4A9.315,9.315,0,0,0,123.85-3.3ZM148-.1h-3.7V-25.25H148Zm0-29.85h-3.7V-37.1H148Zm51.1,21.2,2.7,2.5a18.007,18.007,0,0,1-14,6.5A18.66,18.66,0,0,1,169.3-18.6a18.66,18.66,0,0,1,18.5-18.85A18.107,18.107,0,0,1,201.75-31l-2.7,2.55a14.327,14.327,0,0,0-11.1-5.4,15.343,15.343,0,0,0-14.9,15.25c0,8.5,7.15,15.3,14.9,15.3A14.52,14.52,0,0,0,199.1-8.75ZM211.15-.1h-3.7V-25.25h3.7Zm0-29.85h-3.7V-37.1h3.7ZM230-25.25v3.65h-5.2V-.1h-3.65V-21.6h-4.3v-3.65h4.3V-37.1h3.65v11.85Zm24.35,0h3.95l-16.55,36.9H237.8l5.3-11.8-9.9-25.1h3.95L245.2-4.8Z" transform="translate(651.824 289)" fill="#0050be"/><path d="M126.177-2.055H113.3L73.021-67.815V6.576H47.813V-3.151H61.924V-73.3L22.742-5.343H10.412L43.84-63.294h-30V-73.706H61.924v-36.3h11.1v22.879L90.009-59.321,106.86-83.159H120.7L97-49.731ZM247.7-94.8h-9.864l-4.521-15.207h10Zm-106.86,78.09,12.878-6.439V-70.007H140.836v-9.727h12.878v-29.181h9.864v29.181H174.4v9.727H163.578v41.922l10.686-5.343v11.371L140.836-5.48ZM256.6-82.2H229.064l9.864,33.565,5.48-13.426h10.96L243.449-33.017,255.231,7.124H244.545l-7.261-24.8-9.59,23.427h-10.96l16.029-39.045L218.378-82.2H188.786v23.29h28.222L212.487-6.987H192.9V-16.3h10.549l2.877-32.743H188.786v28.633L178.511,7.124H167.962l10.686-28.907V-92.338h36.716l-5.069-17.673h10.686l5.069,17.673H256.6Zm77.268-12.056h51.512v10.138H272.356V-94.256h51.238V-110.7h10.275Zm.274,12.467V-67.4h40.141V-5.48H363.735V-57.4H334.143V7.124H323.457V-57.4H293.865V-5.48H283.453V-67.4h40V-81.789Z" transform="translate(639.824 229)" fill="#0050be"/></g><g transform="translate(-99.35 -41.723)"><path d="M0,45.545s91.393-55.272,177,0,182.113,0,182.113,0-97.217,102.476-182.113,0S0,45.545,0,45.545Z" transform="matrix(0.819, -0.574, 0.574, 0.819, 99.352, 264.703)" fill="#0050be"/><path d="M0,37.182s103.047,83.659,167.2,0,158.74,0,158.74,0-73.66-33.944-158.74,0S0,37.182,0,37.182Z" transform="matrix(-0.438, -0.899, 0.899, -0.438, 311.547, 367.278)" fill="#ff5212"/><path d="M7.245-31.4s95.8,152.237,159.958,68.578c.071.124.141.273,0,0C75.662,54.451,7.245-31.4,7.245-31.4Z" transform="matrix(0.53, -0.848, 0.848, 0.53, 149.67, 321.233)" fill="#00be50"/></g><path d="M28.223-23.169A60.084,60.084,0,0,0,45.361-7.837q2.71,1.611,2.71,2.173,0,.415-1.672.9a11.221,11.221,0,0,1-3.137.488,3.014,3.014,0,0,1-1.88-.635,63.257,63.257,0,0,1-7.08-6.665,82.289,82.289,0,0,1-7.129-8.716V-1.611q0,4.1-3.54,4.1a12.225,12.225,0,0,1-4.1-1A26.3,26.3,0,0,1,15.82-.269q-1.074-.659-1.074-1.294,0-1.27,1.318-1.27a5.4,5.4,0,0,1,1.367.293,17.138,17.138,0,0,0,4.736,1q1.294,0,1.294-1.367V-38.6q0-1.66,1.855-1.66a1.846,1.846,0,0,1,1.489.635,1.494,1.494,0,0,1,.366,1.025V-25.61l.317-.2A113.265,113.265,0,0,0,38.232-33.5a2.844,2.844,0,0,1,1.758-.757,1.733,1.733,0,0,1,1.343.562,2.124,2.124,0,0,1,.635,1.465,2.083,2.083,0,0,1-.928,1.636,62.653,62.653,0,0,1-7.007,4.37Q30.42-24.17,28.223-23.169ZM15.967-25.391l-9.448.879a1.469,1.469,0,0,1-.22.024A1.5,1.5,0,0,1,4.614-26.2a1.527,1.527,0,0,1,1.636-1.66l11.694-.9h.464q2.783,0,2.783,2.319a11.178,11.178,0,0,1-.9,3.491,37.254,37.254,0,0,1-6.616,11.06A36.737,36.737,0,0,1,6.323-5.2a2.427,2.427,0,0,1-1.367.513,1.113,1.113,0,0,1-.928-.439,1.334,1.334,0,0,1-.342-.854,1.354,1.354,0,0,1,.439-.977q.146-.146,1.416-1.2a39.777,39.777,0,0,0,8.032-9.229,31.633,31.633,0,0,0,3.271-6.372,3.048,3.048,0,0,0,.22-.952q0-.757-.879-.708A1.132,1.132,0,0,0,15.967-25.391Zm44.326,5.542a70.909,70.909,0,0,1-3.76-10.791A15.584,15.584,0,0,0,55.02-34.4a2.439,2.439,0,0,1-.342-1.2,1.64,1.64,0,0,1,.635-1.294,1.66,1.66,0,0,1,1.147-.439A2.761,2.761,0,0,1,58.9-35.571a23.07,23.07,0,0,1,1.416,4.614,41.445,41.445,0,0,0,3.027,8.716Q67.69-25.2,77.188-30.957a2.734,2.734,0,0,1,1.318-.464A1.811,1.811,0,0,1,80.19-30.4a2.053,2.053,0,0,1,.269,1A1.712,1.712,0,0,1,79.751-28a12.719,12.719,0,0,1-1.27.684,92.316,92.316,0,0,0-13.647,8.3q-6.885,5.078-6.885,9.546,0,4.98,8.789,4.98A92.754,92.754,0,0,0,77.212-5.1a5.956,5.956,0,0,1,.659-.049,1.764,1.764,0,0,1,1.416.635,1.724,1.724,0,0,1,.439,1.2,1.745,1.745,0,0,1-1.733,1.9A100.633,100.633,0,0,1,67.056-1a19.214,19.214,0,0,1-8.5-1.562,7.079,7.079,0,0,1-4.321-6.689Q54.238-14.648,60.293-19.849ZM119.658-.415,97.368.9v.244A1.588,1.588,0,0,1,96.9,2.319a1.883,1.883,0,0,1-1.392.537,1.815,1.815,0,0,1-1.538-.708,1.536,1.536,0,0,1-.317-1v-31.1a1.516,1.516,0,0,1,.732-1.367,2.093,2.093,0,0,1,1.123-.317,1.889,1.889,0,0,1,1.636.83l2.686-.244a78.832,78.832,0,0,0,6.738-8.5,2.671,2.671,0,0,1,2.1-1.416,2.011,2.011,0,0,1,1.074.317,1.638,1.638,0,0,1,.854,1.489q0,1.929-6.4,7.715l15.356-1.343q.415-.049.562-.049,3.247,0,3.247,3.833V1.147a1.588,1.588,0,0,1-.464,1.172,1.883,1.883,0,0,1-1.392.537,1.815,1.815,0,0,1-1.538-.708,1.536,1.536,0,0,1-.317-1Zm0-22.729v-5.1q0-1.245-1.172-1.245h-.171L97.368-27.734v6.226Zm0,3.1-22.29,1.636v6.4l22.29-1.489Zm0,9.644L97.368-8.911v6.519l22.29-1.318Zm20.229-14.282q-1.147,1.147-2.2,2.1a2.3,2.3,0,0,1-1.514.635,1.3,1.3,0,0,1-1.1-.562,1.347,1.347,0,0,1-.244-.757,1.5,1.5,0,0,1,.464-1.1q.122-.122,1.147-1a30.906,30.906,0,0,0,6.689-8.423,33.559,33.559,0,0,0,1.855-3.76,2.078,2.078,0,0,1,1.953-1.489,2.259,2.259,0,0,1,.928.2,1.363,1.363,0,0,1,.928,1.294,2.566,2.566,0,0,1-.146.806l4.492-.513q.269-.024.684-.024,2.856,0,2.856,2.368,0,1.465-1.733,5.933a37.48,37.48,0,0,1-14.5,17.92,4.166,4.166,0,0,1-2,.9,1.232,1.232,0,0,1-.928-.415,1.24,1.24,0,0,1-.391-.9,1.4,1.4,0,0,1,.464-1.05q.1-.1,1.88-1.416a40.572,40.572,0,0,0,6.25-5.957,1.747,1.747,0,0,1-.366.049,2.134,2.134,0,0,1-1.733-1.074,11.952,11.952,0,0,0-3.2-3.2A1.611,1.611,0,0,1,139.888-24.683Zm1.2-1.221a13.536,13.536,0,0,1,4.565,2.075q1.514.977,1.587,2.026a39.064,39.064,0,0,0,2.49-3.979,1.465,1.465,0,0,1-.854.293,2.208,2.208,0,0,1-1.562-.9,13.156,13.156,0,0,0-3.394-2.783Q142.842-27.832,141.084-25.9Zm9.5-1.562a35.847,35.847,0,0,0,1.88-5.249,3.484,3.484,0,0,0,.171-.879q0-.488-.586-.488-.171,0-.513.024l-4.541.464q-.781,1.318-1.758,2.686Q150.19-29.248,150.581-27.466Zm13.7,3.491a26.455,26.455,0,0,1-9.155,13.281,4.3,4.3,0,0,1-2.2,1.2,1.275,1.275,0,0,1-.977-.391,1.339,1.339,0,0,1-.366-.9,1.358,1.358,0,0,1,.317-.879q.2-.22,1.66-1.44a23.045,23.045,0,0,0,7.69-13.159L156.855-26q-1.782.1-1.782-1.465,0-1.538,1.636-1.636l4.98-.293.024-.439q.1-1.221.1-2.319v-6.641a1.463,1.463,0,0,1,.562-1.221,1.956,1.956,0,0,1,1.221-.391,1.706,1.706,0,0,1,1.416.61,1.524,1.524,0,0,1,.342,1v6.543q0,1.367-.1,2.637l7.935-.488h.269q1.733,0,1.733,1.465A1.46,1.46,0,0,1,173.652-27l-7.52.439a35.447,35.447,0,0,0,10.962,13.721q1.294.977,1.294,1.489,0,.439-1.05.732a10.372,10.372,0,0,1-2.686.439,2.507,2.507,0,0,1-1.831-.781A45.259,45.259,0,0,1,164.277-23.975Zm4.883-14.917q1.074,0,3.711,2.124t2.637,3.369a1.618,1.618,0,0,1-.61,1.245,2.057,2.057,0,0,1-1.392.562,2.3,2.3,0,0,1-1.855-1.318,26.208,26.208,0,0,0-3.223-3.784,1.58,1.58,0,0,1-.537-1.025,1.291,1.291,0,0,1,.391-.83A1.14,1.14,0,0,1,169.16-38.892ZM141.914-7.715a1.372,1.372,0,0,1,.781.269,1.314,1.314,0,0,1,.61,1.147,3.989,3.989,0,0,1-.317,1.343,22.268,22.268,0,0,1-3.662,6.445,2.53,2.53,0,0,1-1.9,1.074,1.789,1.789,0,0,1-1.318-.61,1.914,1.914,0,0,1-.562-1.367,3.361,3.361,0,0,1,1-1.953,38.407,38.407,0,0,0,3.857-5.3A1.8,1.8,0,0,1,141.914-7.715Zm8.447-.049q.9,0,1.538,1.563A19.541,19.541,0,0,1,153.755.562q0,2.051-1.88,2.051-1.929,0-2.124-2.539a58.218,58.218,0,0,0-.757-5.786,3.4,3.4,0,0,1-.073-.659A1.252,1.252,0,0,1,150.361-7.764Zm9.3-.684q.806,0,1.733,1.416a45.408,45.408,0,0,1,3.149,5.786,2.8,2.8,0,0,1,.293,1.221,1.822,1.822,0,0,1-.879,1.636,1.924,1.924,0,0,1-1.05.293A1.916,1.916,0,0,1,160.981.366a65.585,65.585,0,0,0-2.441-6.445,2.6,2.6,0,0,1-.269-1.074Q158.271-8.447,159.663-8.447ZM169.893-8.5a1.838,1.838,0,0,1,1.245.61A35.346,35.346,0,0,1,175.7-2.173a6.1,6.1,0,0,1,1.27,2.905,2.019,2.019,0,0,1-.781,1.685,2.053,2.053,0,0,1-1.294.415,1.9,1.9,0,0,1-1.66-.854q-.122-.2-.488-1A41.3,41.3,0,0,0,168.94-6.03,2.192,2.192,0,0,1,168.5-7.2a1.184,1.184,0,0,1,.342-.83A1.4,1.4,0,0,1,169.893-8.5Zm21.4-11.353a70.909,70.909,0,0,1-3.76-10.791,15.584,15.584,0,0,0-1.514-3.76,2.439,2.439,0,0,1-.342-1.2,1.64,1.64,0,0,1,.635-1.294,1.66,1.66,0,0,1,1.147-.439,2.761,2.761,0,0,1,2.441,1.758,23.07,23.07,0,0,1,1.416,4.614,41.445,41.445,0,0,0,3.027,8.716q4.346-2.954,13.843-8.716a2.734,2.734,0,0,1,1.318-.464,1.811,1.811,0,0,1,1.685,1.025,2.053,2.053,0,0,1,.269,1A1.712,1.712,0,0,1,210.752-28a12.719,12.719,0,0,1-1.27.684,92.316,92.316,0,0,0-13.647,8.3q-6.885,5.078-6.885,9.546,0,4.98,8.789,4.98a92.754,92.754,0,0,0,10.474-.61,5.956,5.956,0,0,1,.659-.049,1.764,1.764,0,0,1,1.416.635,1.724,1.724,0,0,1,.439,1.2,1.745,1.745,0,0,1-1.733,1.9A100.633,100.633,0,0,1,198.057-1a19.214,19.214,0,0,1-8.5-1.562,7.079,7.079,0,0,1-4.321-6.689Q185.239-14.648,191.294-19.849Zm56.021,5.615,6.445-.513q.269-.024.562-.024,3.149,0,3.149,2.856a7.853,7.853,0,0,1-.1,1.123L256.03-2.637A1.367,1.367,0,0,1,257.373-1.1a1.481,1.481,0,0,1-1.562,1.66l-16.187.781a1.449,1.449,0,0,1-1.611,1.465q-1.611,0-1.831-1.855l-1.66-13.208a2.67,2.67,0,0,1-.024-.317,1.554,1.554,0,0,1,1.733-1.782,1.753,1.753,0,0,1,1.636.879l5.908-.488v-8.594l-12.158.952a2.6,2.6,0,0,1-.269.024,1.489,1.489,0,0,1-1.685-1.685q0-1.465,1.611-1.587l12.5-1v-7.373q-7.983,1.611-8.862,1.611-1.465,0-1.465-1.392a1.141,1.141,0,0,1,.854-1.123q.2-.073,1.709-.366a102.806,102.806,0,0,0,16.357-4.761,3.534,3.534,0,0,1,1.221-.244,1.6,1.6,0,0,1,1.392.757,1.8,1.8,0,0,1,.342,1.05,1.769,1.769,0,0,1-1.367,1.733,60.5,60.5,0,0,1-6.641,1.9v7.91l12.6-1a1.9,1.9,0,0,1,1.245.244,1.394,1.394,0,0,1,.708,1.294,1.6,1.6,0,0,1-1.709,1.758l-12.842,1.025Zm5.4,11.743.952-7.959a2.413,2.413,0,0,0,.024-.342q0-.781-.879-.708l-14.429,1.1.952,8.618ZM221.558-38.013q1.465,0,5.176,2.441a12.787,12.787,0,0,1,1.758,1.294,2.1,2.1,0,0,1,.684,1.514,1.964,1.964,0,0,1-.366,1.123,1.739,1.739,0,0,1-1.538.806,2.963,2.963,0,0,1-1.929-1,46.9,46.9,0,0,0-4.3-3.613,1.684,1.684,0,0,1-.757-1.343Q220.288-38.013,221.558-38.013ZM218.6-27.637a3.753,3.753,0,0,1,1.514.464,30.754,30.754,0,0,1,5.347,3.052,2.262,2.262,0,0,1,1,1.807,2.1,2.1,0,0,1-.391,1.172,1.725,1.725,0,0,1-1.489.757,2.811,2.811,0,0,1-1.782-.879q-2.051-1.88-4.59-3.833a1.655,1.655,0,0,1-.781-1.318Q217.432-27.637,218.6-27.637Zm9.253,11.719a1.789,1.789,0,0,1,.708.171,1.283,1.283,0,0,1,.806,1.221,6.173,6.173,0,0,1-.61,1.953,57.657,57.657,0,0,1-6.274,11.328,2.435,2.435,0,0,1-1.929,1.221,1.908,1.908,0,0,1-1.2-.439,1.647,1.647,0,0,1-.708-1.367,4.812,4.812,0,0,1,1.074-2.344,88.327,88.327,0,0,0,6.616-10.474Q227-15.918,227.856-15.918Zm56,6.421a47.266,47.266,0,0,1,5.1,4.346,2.884,2.884,0,0,1,1,2,1.587,1.587,0,0,1-.342,1,1.864,1.864,0,0,1-1.514.83,2.008,2.008,0,0,1-1.221-.439q-.2-.146-1.245-1.27Q284.1-4.639,281.46-6.934a52.746,52.746,0,0,1-12.012,8.887,2.979,2.979,0,0,1-1.343.415,1.133,1.133,0,0,1-1.05-.586,1.343,1.343,0,0,1-.22-.684q0-.732,1.221-1.44a50.611,50.611,0,0,0,10.767-8.765q-2.881-2.295-6.567-4.761a1.54,1.54,0,0,1-.83-1.221,1.375,1.375,0,0,1,.293-.781,1.211,1.211,0,0,1,1.025-.537,2.688,2.688,0,0,1,1.27.391q1.953,1.1,6.982,4.443a43.075,43.075,0,0,0,4.248-6.055,2.166,2.166,0,0,1,1.831-1.367,1.983,1.983,0,0,1,1.123.342A1.558,1.558,0,0,1,289-17.285Q289-15.479,283.853-9.5Zm-6.689-25.586,22.046-2.173h.2q1.44,0,1.44,1.514A1.352,1.352,0,0,1,299.5-34.2l-24.976,2.368a34.96,34.96,0,0,1-4.224,4.15,3.388,3.388,0,0,1-1.831.977,1.04,1.04,0,0,1-.806-.391,1.213,1.213,0,0,1-.342-.854q0-.635,1.343-1.88a28.992,28.992,0,0,0,3.687-4.2,36.127,36.127,0,0,0,3.442-5.444,2.127,2.127,0,0,1,1.88-1.44,1.725,1.725,0,0,1,1.05.342,1.575,1.575,0,0,1,.659,1.294Q279.385-38.281,277.163-35.083Zm30.151,26.44a1.232,1.232,0,0,1,1.025,1,7.169,7.169,0,0,1,.146,1.807,30.658,30.658,0,0,1-.537,6.372q-.659,3.1-2.759,3.1-1.782,0-4.224-2.148a17.067,17.067,0,0,1-4.883-8.447,29.915,29.915,0,0,1-1.05-8.2l.073-3.857q0-1.611-1.709-1.611-.122,0-.439.024l-24.292,2.2a1.469,1.469,0,0,1-.22.024,1.35,1.35,0,0,1-1.245-.586,1.542,1.542,0,0,1-.293-.952,1.389,1.389,0,0,1,1.44-1.538l26.514-2.246q.342-.024.586-.024,3.345,0,3.345,3.491,0,.366-.073,1.27-.1,1.2-.1,2.954,0,7.52,2.271,11.792a8.449,8.449,0,0,0,1.88,2.49,3.019,3.019,0,0,0,1.563.928q.537,0,.854-1.44a32.038,32.038,0,0,0,.659-5A1.32,1.32,0,0,1,307.314-8.643Zm-12.964-18.75L274.5-25.562a1.535,1.535,0,0,1-.244.024,1.273,1.273,0,0,1-1.44-1.44,1.334,1.334,0,0,1,1.392-1.465L294.058-30.3q1.66-.146,1.66,1.44A1.34,1.34,0,0,1,294.351-27.393Zm39.761-3.3a7.983,7.983,0,0,1,.537,3.32q0,7.3-5.713,16.382-4.248,6.738-7.959,6.738a5.8,5.8,0,0,1-4.639-2.661A14.032,14.032,0,0,1,313.75-15.7,15.565,15.565,0,0,1,318.1-26.221a22.128,22.128,0,0,1,8.472-5.884,24.93,24.93,0,0,1,9.473-1.855,16.289,16.289,0,0,1,11.426,4.15,14.777,14.777,0,0,1,4.883,11.45A16.607,16.607,0,0,1,348.369-7.3a19.067,19.067,0,0,1-7.617,5.42,3.718,3.718,0,0,1-1.367.317,1.287,1.287,0,0,1-1.123-.513,1.234,1.234,0,0,1-.269-.732,1.447,1.447,0,0,1,.488-1.025,19.106,19.106,0,0,1,1.953-1.2,15.427,15.427,0,0,0,4.761-4.2,14.463,14.463,0,0,0,3.149-9.058,11.97,11.97,0,0,0-4.175-9.473,11.93,11.93,0,0,0-8.057-3l-1.855.073h-.1Zm-3.32.586a19.24,19.24,0,0,0-11.035,7.349,11.976,11.976,0,0,0-2.417,6.982A11.511,11.511,0,0,0,319-9.351q1.05,1.611,2.026,1.611,1.782,0,4.395-4a38.775,38.775,0,0,0,4.272-8.862,21.769,21.769,0,0,0,1.245-6.763Q330.938-28.2,330.791-30.1Zm51.724,16.357a64.083,64.083,0,0,0,10.034,6.812,45.79,45.79,0,0,0,7.642,3.442q2.222.732,2.222,1.392,0,.415-.952.757a11.226,11.226,0,0,1-3.516.879q-1.392,0-5.127-2.2a57.955,57.955,0,0,1-11.646-8.813V1.758a1.593,1.593,0,0,1-.415,1.1,1.783,1.783,0,0,1-1.416.586,1.7,1.7,0,0,1-1.66-.9,1.724,1.724,0,0,1-.171-.781v-12.5a49.687,49.687,0,0,1-14.16,9.79A12.77,12.77,0,0,1,359.834.366a1.236,1.236,0,0,1-1.123-.659,1.5,1.5,0,0,1-.2-.708,1.277,1.277,0,0,1,.537-1,13.636,13.636,0,0,1,1.831-.9,45.985,45.985,0,0,0,8.838-5.42,51.028,51.028,0,0,0,5.615-4.956l-14.233.928a1.863,1.863,0,0,1-1.343-.391,1.493,1.493,0,0,1-.513-1.2,1.4,1.4,0,0,1,1.465-1.562l16.8-1.1v-2.905a1.516,1.516,0,0,1,.732-1.367,2.093,2.093,0,0,1,1.123-.317,1.833,1.833,0,0,1,1.465.659,1.56,1.56,0,0,1,.342,1.025v2.661l16.846-1.1q1.855,0,1.855,1.636a1.362,1.362,0,0,1-1.44,1.514Zm14.795-12.4a1.392,1.392,0,0,1,1.245,1.514,1.331,1.331,0,0,1-1.392,1.489l-11.06.708a1.443,1.443,0,0,1-1.587,1.392q-1.44,0-1.611-1.758l-1.1-12.3v-.244a1.414,1.414,0,0,1,1.611-1.587,1.677,1.677,0,0,1,1.563.83l10.132-.952q.366-.024.708-.024,2.93,0,2.93,2.515a4.969,4.969,0,0,1-.1.977Zm-3.149.2,1-7.007a2.1,2.1,0,0,0,.024-.342q0-.806-.9-.806h-.269l-8.691.806.61,7.959ZM370.43-33.2a35.441,35.441,0,0,1-2.075,5.127,21.966,21.966,0,0,1-6.909,7.886A2.639,2.639,0,0,1,360-19.6a.974.974,0,0,1-.806-.415,1.36,1.36,0,0,1-.293-.83q0-.562,1.2-1.562a22.1,22.1,0,0,0,6.1-8.5,17.414,17.414,0,0,0,.708-1.953l-5.859.562a1.7,1.7,0,0,1-1.05-.22,1.33,1.33,0,0,1-.635-1.221,1.358,1.358,0,0,1,1.392-1.514l6.958-.61a42.889,42.889,0,0,0,.684-4.321q.22-1.709,1.758-1.709a2.11,2.11,0,0,1,.806.171,1.337,1.337,0,0,1,.9,1.343,33.54,33.54,0,0,1-.659,4.2l4.712-.415a4.448,4.448,0,0,1,.488-.024,2.514,2.514,0,0,1,2.856,2.832,31.486,31.486,0,0,1-.757,6.1,20.828,20.828,0,0,1-1.538,4.932,3.628,3.628,0,0,1-3.369,2.295A10.181,10.181,0,0,1,368.525-22q-1-.586-1-1.221,0-1.123,1-1.123a2.989,2.989,0,0,1,1.05.269,7.785,7.785,0,0,0,2.856.61,1.528,1.528,0,0,0,1.111-.391,4.509,4.509,0,0,0,.842-1.538,20.035,20.035,0,0,0,1.074-4.1,21,21,0,0,0,.366-3.125.874.874,0,0,0-.977-1,1.982,1.982,0,0,0-.244.024Zm58.34-.952,16.211-1h.342q2.393,0,2.393,1.636,0,1.367-2.71,4.736a21.87,21.87,0,0,1-1.66,1.855,1.694,1.694,0,0,1-1.2.513,1.267,1.267,0,0,1-.928-.391,1,1,0,0,1-.342-.757,2.784,2.784,0,0,1,.513-1.318,8.73,8.73,0,0,0,1.343-2.734q0-.439-.708-.439h-.2l-30.493,1.88q.024.635.024,1.123,0,5.957-2.393,5.957a2.142,2.142,0,0,1-1.318-.439,1.626,1.626,0,0,1-.635-1.367,5.308,5.308,0,0,1,.317-1.367,24.559,24.559,0,0,0,1.074-6.47q.1-1.66,1.367-1.66,1.172,0,1.343,1.343l13.843-.854V-39.4q0-1.636,1.9-1.636a1.942,1.942,0,0,1,1.563.659,1.489,1.489,0,0,1,.342.977Zm0,22.729v8.472l17.5-.708a1.734,1.734,0,0,1,1.367.537,1.627,1.627,0,0,1,.488,1.2,1.459,1.459,0,0,1-1.514,1.685L408.872,1.245a1.9,1.9,0,0,1-.757-.1,1.551,1.551,0,0,1-1.147-1.636,1.443,1.443,0,0,1,1.538-1.66l16.455-.659v-8.4l-10.01.562h-.269a1.4,1.4,0,0,1-1.611-1.562,1.422,1.422,0,0,1,1.538-1.587l24.023-1.367h.1a1.544,1.544,0,0,1,1.367.537,1.528,1.528,0,0,1,.366,1.05,1.391,1.391,0,0,1-1.489,1.563Zm4.1-17.334v4.81q0,1.123.586,1.392a7.875,7.875,0,0,0,2.661.269,24.808,24.808,0,0,0,5.322-.513,4.781,4.781,0,0,1,.9-.122,1.5,1.5,0,0,1,1.709,1.685q0,1.367-1.611,1.758a30.843,30.843,0,0,1-6.616.513q-4.175,0-5.322-.83-1.221-.854-1.221-3.2V-28.76a1.506,1.506,0,0,1,.562-1.221,1.979,1.979,0,0,1,1.245-.415,1.791,1.791,0,0,1,1.44.635A1.587,1.587,0,0,1,432.871-28.76Zm-11.768-.1a2.021,2.021,0,0,1,.952.244,1.6,1.6,0,0,1,1,1.514,6.966,6.966,0,0,1-1.123,2.979,16.547,16.547,0,0,1-5.786,5.908q-3.052,1.953-4.492,1.953-1.147,0-1.147-1.1a1.376,1.376,0,0,1,.659-1.1q.146-.1,1.1-.635a15.537,15.537,0,0,0,7.1-8.105Q420.029-28.857,421.1-28.857Zm51.211,16.016-9.741.61q.024.293.024.464,0,1.636-1.807,1.636-1.44,0-1.733-1.758l-2.637-16.7a2.936,2.936,0,0,1-.049-.439q0-1.709,2.075-1.709a1.653,1.653,0,0,1,1.733,1.514l12.134-1.05v-9.18a1.516,1.516,0,0,1,.659-1.318,2.023,2.023,0,0,1,1.221-.391,2.244,2.244,0,0,1,1.27.391,1.516,1.516,0,0,1,.659,1.318v8.862l12.939-1.1a2.593,2.593,0,0,1,.366-.024,3.152,3.152,0,0,1,2.441.9,2.658,2.658,0,0,1,.708,1.929,5.225,5.225,0,0,1-.1.977l-2.246,10.718a1.42,1.42,0,0,1,1.392,1.636q0,1.538-1.807,1.66l-13.7.83V1.855a1.5,1.5,0,0,1-.244.854,2.075,2.075,0,0,1-3.32,0,1.5,1.5,0,0,1-.244-.854Zm0-3.271V-26.88l-11.646,1,1.44,10.4Zm3.809-.244,10.4-.635L488.281-27.2v-.2q0-.854-1.05-.757l-11.108.952Zm31.851-3.149a78,78,0,0,1-6.641,11.06,1.8,1.8,0,0,1-1.392.928,1.075,1.075,0,0,1-.781-.342,1.237,1.237,0,0,1-.415-.879,5.9,5.9,0,0,1,1.2-2.173q3.2-4.517,7.227-14.16l-5.542.684q-.269.024-.391.024a1.4,1.4,0,0,1-1.611-1.562q0-1.44,1.563-1.611l6.787-.854v-9.814a1.382,1.382,0,0,1,.61-1.221,1.856,1.856,0,0,1,1.074-.317,1.966,1.966,0,0,1,1.172.366,1.352,1.352,0,0,1,.586,1.172v9.4l4.346-.537a2.254,2.254,0,0,1,.317-.024q1.636,0,1.636,1.538a1.5,1.5,0,0,1-1.489,1.636l-4.81.586v2.905l.854.562q3.809,2.49,5.151,3.613a2.39,2.39,0,0,1,1,1.782,1.455,1.455,0,0,1-.342.952,1.575,1.575,0,0,1-1.221.635,3.318,3.318,0,0,1-2.051-1.245q-1.294-1.343-3.076-2.979l-.317-.293V1.2q0,1.514-1.758,1.514-1.685,0-1.685-1.514ZM534.487-7.4,536.1-6.226A53.546,53.546,0,0,1,542.861-.61a2.22,2.22,0,0,1,.757,1.563,1.822,1.822,0,0,1-.537,1.343,1.8,1.8,0,0,1-1.294.488,1.845,1.845,0,0,1-1.318-.537,10.61,10.61,0,0,1-.757-.854q-1.855-2.124-6.738-6.616l-.464-.439a47.1,47.1,0,0,1-6.958,4.932q-6.128,3.613-7.4,3.613-1.294,0-1.294-1.343a1.189,1.189,0,0,1,.513-.928,8.99,8.99,0,0,1,1.44-.781,50.054,50.054,0,0,0,11.011-7.666A51.631,51.631,0,0,0,538.54-17.5a1.943,1.943,0,0,1,1.611-1.025,2.048,2.048,0,0,1,.928.22,1.676,1.676,0,0,1,1,1.538,3.651,3.651,0,0,1-.879,1.831A52.413,52.413,0,0,1,534.487-7.4ZM531.46-33.423l10.986-.781h.2a1.332,1.332,0,0,1,1.294.854,1.668,1.668,0,0,1,.171.757q0,1.489-1.343,1.587l-13.623.977a1.4,1.4,0,0,1,.732,1.221,2.1,2.1,0,0,1-.635,1.245,65.746,65.746,0,0,1-5.371,5.811,46.474,46.474,0,0,1,5.42,3.027,42.932,42.932,0,0,0,5.127-6.592,2.036,2.036,0,0,1,1.66-1.172,1.976,1.976,0,0,1,.928.244,1.566,1.566,0,0,1,.952,1.416q0,1.147-3.369,5.249a44.575,44.575,0,0,1-11.548,9.912q-3.98,2.417-4.98,2.417a1.126,1.126,0,0,1-1.074-.732,1.256,1.256,0,0,1-.146-.562,1.342,1.342,0,0,1,.635-1.1q.244-.171,1.172-.659a42.284,42.284,0,0,0,8.35-6.2,42.031,42.031,0,0,0-4.81-2.734q-1.929-.9-1.929-2.173a3.473,3.473,0,0,1,1.416-2.246,40.982,40.982,0,0,0,4.858-5.688,3.064,3.064,0,0,1,.464-.537l-9.082.635h-.171a1.375,1.375,0,0,1-1.074-.464,1.685,1.685,0,0,1-.391-1.123q0-1.514,1.343-1.611l10.254-.732v-6.616a1.481,1.481,0,0,1,.562-1.2,1.979,1.979,0,0,1,1.245-.415,1.747,1.747,0,0,1,1.44.635,1.43,1.43,0,0,1,.342.977Zm31.411,7.1a51.279,51.279,0,0,0,6.274-9.4,1.972,1.972,0,0,1,1.733-1.343,1.781,1.781,0,0,1,.806.2,1.381,1.381,0,0,1,.806,1.27,3.939,3.939,0,0,1-.684,1.831,67.019,67.019,0,0,1-4.858,7.08l5.3-.513a1.826,1.826,0,0,1,.928.171,1.271,1.271,0,0,1,.806,1.318,1.373,1.373,0,0,1-1.392,1.514l-8.35.781a64.054,64.054,0,0,1-4.59,4.858l7.544-.757q.366-.024.562-.024,2.832,0,2.832,3.345V.146q0,1.514-1.66,1.514-1.733,0-1.733-1.514V-1.318l-9.546.659V.146q0,1.514-1.66,1.514-1.636,0-1.636-1.514V-13.892q-5.1,4.053-6.372,4.053a1,1,0,0,1-.879-.488,1.426,1.426,0,0,1-.269-.757,1.226,1.226,0,0,1,.488-.952q.171-.146,1.074-.757a70.271,70.271,0,0,0,9.619-8.105q1.05-1.05,2.051-2.1L549-21.948h-.269a1.316,1.316,0,0,1-1.489-1.489,1.383,1.383,0,0,1,1.416-1.514l9.082-.854v-5.249l-5.2.464h-.171a1.423,1.423,0,0,1-.928-.342,1.525,1.525,0,0,1-.586-1.221,1.471,1.471,0,0,1,.659-1.27,1.473,1.473,0,0,1,.684-.22l5.542-.488v-5.42a1.363,1.363,0,0,1,.342-.928,1.791,1.791,0,0,1,1.392-.562,1.654,1.654,0,0,1,1.416.659,1.391,1.391,0,0,1,.244.83v5.127l4.395-.366q.146-.024.171-.024a1.42,1.42,0,0,1,1.392.732,1.636,1.636,0,0,1,.2.781,1.346,1.346,0,0,1-1.392,1.489l-4.761.439v5.225ZM557.646-8.374v4.785l9.546-.635V-9.106Zm0-2.783,9.546-.757v-3.491q0-1-.928-1h-.073l-8.545.928Zm17.773-21.8a1.534,1.534,0,0,1-.244.024,1.36,1.36,0,0,1-1.514-1.562q0-1.44,1.563-1.611l11.23-1.147q.293-.024.684-.024,2.466,0,2.466,2.148a8.083,8.083,0,0,1-.61,2.49,65.288,65.288,0,0,1-3.833,8.691q6.055,5.4,6.055,11.816a5.263,5.263,0,0,1-1.025,3.369,3.338,3.338,0,0,1-2.783,1.318,12.691,12.691,0,0,1-5.249-1.465q-1.245-.586-1.245-1.416,0-1.245,1.123-1.245a3.645,3.645,0,0,1,1,.2,10.727,10.727,0,0,0,2.832.488q1.733,0,1.733-2.124,0-4.712-5.151-9.79a1.523,1.523,0,0,1-.562-1.074,1.309,1.309,0,0,1,.684-1.074,43.626,43.626,0,0,0,2.588-6.909q.2-.61.269-.83a2.46,2.46,0,0,0,.122-.635q0-.635-.83-.635h-.269l-5.591.635V1.953a1.461,1.461,0,0,1-.317.952,1.869,1.869,0,0,1-2.905-.122,1.5,1.5,0,0,1-.22-.83Zm43.4.073,18.091-1.123h.22q1.733,0,1.733,1.66a1.613,1.613,0,0,1-1.733,1.758l-39.868,2.344h-.293q-1.66,0-1.66-1.733,0-1.465,1.66-1.562l18.042-1.123v-6.689a1.493,1.493,0,0,1,.659-1.294,1.994,1.994,0,0,1,1.245-.391,1.935,1.935,0,0,1,1.392.488,1.588,1.588,0,0,1,.513,1.2Zm-13.184,13.55.757,13.086v.269q0,1.489-1.831,1.489a1.62,1.62,0,0,1-1.782-1.758l-.9-15.6v-.171q0-1.587,1.807-1.587a1.563,1.563,0,0,1,1.685,1.172l9.766-.708v-4.3a1.559,1.559,0,0,1,.562-1.27,1.791,1.791,0,0,1,1.245-.439,1.72,1.72,0,0,1,1.44.659,1.659,1.659,0,0,1,.342,1.05v4.028l10.742-.781q.269-.024.513-.024a2.591,2.591,0,0,1,2.393,1.1,7.109,7.109,0,0,1,.562,3.442,89.384,89.384,0,0,1-.61,11.084q-.561,4.248-3.125,4.248a11.368,11.368,0,0,1-3.516-.781q-3.833-1.343-3.833-2.515,0-1.074,1.123-1.074a3.174,3.174,0,0,1,.952.2,10.827,10.827,0,0,0,3.271.61q1.221,0,1.489-1.587.122-.781.269-2.441.342-3.857.342-7.349,0-1.685-1.2-1.709h-.171l-9.2.684V1.538a1.794,1.794,0,1,1-3.589,0V-20.044ZM677.1-33.447a59.641,59.641,0,0,1-7.642,1.538q-3.32.488-4.028.488-1.685,0-1.685-1.782a1.654,1.654,0,0,1,.635-1.465,4.673,4.673,0,0,1,2-.366,50.59,50.59,0,0,0,10.571-1.514,5.543,5.543,0,0,1,1.44-.22,2.345,2.345,0,0,1,1.9.854,2.821,2.821,0,0,1,.757,1.807,5.776,5.776,0,0,1-.708,2.271q-3.174,6.47-7.08,13.647a69.776,69.776,0,0,1,13.843,2.344,48.493,48.493,0,0,0,.952-5.4A1.726,1.726,0,0,1,689.941-23q1.709,0,1.709,1.88a27.9,27.9,0,0,1-.952,6.372q2.563.9,3.906,1.489a1.96,1.96,0,0,1,1.343,1.831,2.167,2.167,0,0,1-.244.977,1.494,1.494,0,0,1-1.392.854,2.564,2.564,0,0,1-1.05-.269q-1.514-.659-3.613-1.489-2.881,7.52-8.057,11.3a3.574,3.574,0,0,1-1.953.83.917.917,0,0,1-1.025-1.05q0-.586.977-1.538a27.323,27.323,0,0,0,6.567-10.742,61.375,61.375,0,0,0-14.648-2.612,75.145,75.145,0,0,1-5.762,9.033q-2.49,2.93-4.858,2.93a3.884,3.884,0,0,1-2.832-1.44,8.168,8.168,0,0,1-2.051-5.688q0-7.251,13.6-7.935,4.175-7.617,7.593-15.039Zm-9.3,18.408a14.464,14.464,0,0,0-5.884,1.44Q659.5-12.28,659.5-10.229a5.527,5.527,0,0,0,.586,2.71,1.278,1.278,0,0,0,1.1.83q1.27,0,2.905-2.368Q665.479-11.108,667.8-15.039Zm54.556,4.3v-5.664a9,9,0,0,1,.464-3.32,1.822,1.822,0,0,1,1.807-1.172,1.349,1.349,0,0,1,1.514,1.538,2.919,2.919,0,0,1-.2.9,8.164,8.164,0,0,0-.244,2.295v6.2a38.9,38.9,0,0,1,7.739,3.369q1.318.781,1.318,1.782a1.726,1.726,0,0,1-.293.928,1.712,1.712,0,0,1-1.44.854,3.01,3.01,0,0,1-1.392-.562,34.486,34.486,0,0,0-5.933-3v1.953Q725.7.9,720.449.9a9.352,9.352,0,0,1-6.128-2.295,6.306,6.306,0,0,1-2.661-4.883,4.286,4.286,0,0,1,2.1-3.784,7.44,7.44,0,0,1,4.15-1.1A27.668,27.668,0,0,1,722.354-10.742Zm0,3.2a22.587,22.587,0,0,0-3.979-.464q-3.174,0-3.174,1.831a3.044,3.044,0,0,0,1,2.124,5.6,5.6,0,0,0,4.15,1.807q2,0,2-2.393Zm-12.7-23.608q1.221-3.174,2.246-6.445.561-1.758,1.953-1.758a1.958,1.958,0,0,1,.708.122,1.458,1.458,0,0,1,1,1.514,35.374,35.374,0,0,1-1.978,6.03q2.563-.391,4.37-.806a4.085,4.085,0,0,1,.854-.122q1.587,0,1.587,1.66,0,1.465-1.782,1.807-2.978.562-6.421,1.05A106.573,106.573,0,0,1,705.19-13.77q-.513.806-.61.952a1.87,1.87,0,0,1-1.538.854,1.8,1.8,0,0,1-1.05-.342,1.471,1.471,0,0,1-.732-1.27,4.99,4.99,0,0,1,.952-2.1,79.633,79.633,0,0,0,5.981-11.865,55.844,55.844,0,0,1-5.859.537,1.536,1.536,0,0,1-1.318-.635,1.72,1.72,0,0,1-.366-1.1q0-1.587,2.368-1.758Q705.386-30.64,709.658-31.152Zm23.853,7.007a23.191,23.191,0,0,0-5.273-4.248,1.33,1.33,0,0,1-.732-1.123q0-1.245,1.367-1.245a8.268,8.268,0,0,1,2.954,1.27q6.128,3.491,6.128,5.981,0,1.538-2.417,1.563a26.59,26.59,0,0,0-3.638.464,3.069,3.069,0,0,1-.488.049q-1.123,0-1.123-.879A1.065,1.065,0,0,1,731-23.34,17.824,17.824,0,0,1,733.511-24.146Zm23.452-8.008a39.749,39.749,0,0,1-2.441-6.2,1.372,1.372,0,0,1,.757-1.245,2.262,2.262,0,0,1,1.172-.317q1.294,0,1.978,2.026.708,2.075,2.075,5.1,5.1-.879,7.178-1.465a4.235,4.235,0,0,1,1-.146,1.489,1.489,0,0,1,1.66,1.709q0,1.245-1.733,1.636-2.466.562-6.714,1.343,1.709,3.589,3,5.811,3.906-.83,5.737-1.343a5.865,5.865,0,0,1,1.465-.269q1.636,0,1.636,1.782,0,1.123-1.318,1.489-1.953.562-5.859,1.343A44.344,44.344,0,0,0,770-15.845a4.292,4.292,0,0,1,1.1,2.661q0,1.563-2.026,1.563a5.448,5.448,0,0,1-1.172-.171,51.545,51.545,0,0,0-5.542-1q-1.2-.146-1.2-1,0-1.2,1.44-1.2.61,0,2.881.171.366.024,1.172.073-1.465-2.051-3.54-5.444-10.107,1.978-12.061,1.978-1.88,0-1.88-1.758a1.373,1.373,0,0,1,1-1.343,6.069,6.069,0,0,1,1.392-.293q4.321-.562,9.839-1.587-1.782-3.345-2.954-5.859l-.757.122q-9.253,1.562-10.376,1.563-1.831,0-1.831-1.733,0-1.416,2.026-1.636,1.538-.171,8.691-1.294Zm7.959,29.614h.586q2.051,0,2.051,1.855,0,1.831-2.71,1.831-7.642,0-12.012-2.93A9.214,9.214,0,0,1,749.1-6.47a3.084,3.084,0,0,1-.22-1.074,1.338,1.338,0,0,1,1.489-1.538q.952,0,1.685,1.489Q754.5-2.539,764.922-2.539Zm7.861-34.326a2.49,2.49,0,0,1,1.343.513,16.6,16.6,0,0,1,4.59,4.59,2.331,2.331,0,0,1,.439,1.221,1.413,1.413,0,0,1-.513,1.123,1.587,1.587,0,0,1-1.05.366q-.684,0-1.343-1.05a29.584,29.584,0,0,0-3.687-4.614,1.938,1.938,0,0,1-.708-1.221A.82.82,0,0,1,772.783-36.865Zm4.3-3.027q1.2,0,3.979,2.466,2.319,2.051,2.319,3.32a1.421,1.421,0,0,1-.537,1.2,1.589,1.589,0,0,1-.952.342q-.684,0-1.343-.952a26.435,26.435,0,0,0-3.687-4.321,1.776,1.776,0,0,1-.708-1.147A.809.809,0,0,1,777.08-39.893Z" transform="translate(421.824 75.75)" fill="#0050be"/></g></svg>