<!--?xml version="1.0" encoding="utf-8"?-->
<!-- Generator: Adobe Illustrator 18.1.1, SVG Export Plug-In . SVG Version: 6.00 Build 0)  -->

<svg version="1.1" id="_x32_" xmlns="http://www.w3.org/2000/svg" xmlns:xlink="http://www.w3.org/1999/xlink" x="0px" y="0px" viewBox="0 0 512 512" style="width: 256px; height: 256px; opacity: 1;" xml:space="preserve">
<style type="text/css">
	.st0{fill:#4B4B4B;}
</style>
<g>
	<polygon class="st0" points="322.863,171.882 289.457,131.518 256,131.518 222.568,131.518 189.137,171.882 256,231.795 	" style="fill: rgb(255, 255, 255);"></polygon>
	<path class="st0" d="M454.954,372.052c-0.103-5.452-1.336-10.904-3.852-15.936l-53.228-106.594
		c-3.055-6.12-7.678-11.11-13.215-14.671c8.619-6.881,14.824-16.758,16.767-28.321l19.275-115.273
		c0.351-2.122,0.522-4.253,0.522-6.367c0-3.706-0.659-7.335-1.695-10.853l1.31-0.505l-16.793-43.369
		C397.01,11.983,379.523,0,360.035,0H151.97c-19.494,0-36.984,11.983-44.019,30.162L91.162,73.531l1.305,0.505
		c-1.036,3.518-1.699,7.147-1.699,10.853c0,2.114,0.176,4.245,0.53,6.367l19.27,115.273c1.939,11.572,8.14,21.449,16.767,28.321
		c-5.533,3.561-10.155,8.56-13.211,14.671L60.893,356.115c-2.516,5.032-3.745,10.485-3.848,15.936h-0.291v73.454
		C56.759,482.232,86.523,512,123.245,512h265.514c36.718,0,66.486-29.768,66.486-66.495v-73.454H454.954z M434.55,383.144
		c-3.612,5.854-9.894,9.354-16.776,9.354H94.231c-6.886,0-13.164-3.5-16.785-9.354c-3.569-5.77-3.903-13.13-0.873-19.198
		l53.233-106.594c3.368-6.736,10.134-10.921,17.661-10.921h27.573c2.546-6.77,5.858-13.147,9.928-18.993h-28.998
		c-13.921,0-25.818-10.074-28.112-23.802l-19.27-115.272c-0.193-1.156-0.291-2.32-0.291-3.475c0.004-4.948,1.742-9.775,4.985-13.601
		h-0.004c4.005-4.724,9.877-7.446,16.069-7.446h253.3c6.18,0,12.06,2.73,16.056,7.437c3.252,3.834,4.99,8.662,4.99,13.61
		c0,1.155-0.095,2.319-0.283,3.475l-19.275,115.272c-2.294,13.729-14.19,23.802-28.116,23.802h-28.989
		c4.066,5.846,7.382,12.223,9.928,18.993h27.577c7.523,0,14.293,4.186,17.657,10.921l53.229,106.594
		C438.453,370.015,438.127,377.375,434.55,383.144z" style="fill: rgb(255, 255, 255);"></path>
	<path class="st0" d="M255.975,235.356c-38.999,0-70.642,31.549-70.642,70.552c0,8.062,1.318,15.859,3.855,23.049h26.122
		c-3.86-6.838-6.051-14.636-6.051-23.049c0-12.882,5.174-24.539,13.672-33.047c8.504-8.499,20.072-13.668,33.043-13.668
		c12.97,0,24.628,5.169,33.131,13.668c8.414,8.508,13.674,20.165,13.674,33.047c0,8.413-2.191,16.211-6.051,23.049h26.032
		c2.542-7.19,3.856-14.986,3.856-23.049C326.616,266.905,294.978,235.356,255.975,235.356z" style="fill: rgb(255, 255, 255);"></path>
</g>
</svg>
